<svg width="144" height="27" viewBox="0 0 144 27" fill="none" xmlns="http://www.w3.org/2000/svg">
<path opacity="0.845" fill-rule="evenodd" clip-rule="evenodd" d="M139.005 0C144.081 0.868805 145.288 3.50688 142.627 7.91467C141.022 8.44563 139.361 8.74684 137.647 8.8192C137.013 9.29951 136.56 9.90238 136.288 10.6283C137.35 13.5947 136.747 16.0822 134.477 18.0907C134.779 18.8446 135.081 19.5981 135.383 20.352C137.884 21.1598 138.714 22.8178 137.873 25.3269C136.173 27.3952 134.362 27.5458 132.44 25.7792C131.581 24.0977 131.657 22.4397 132.666 20.8043C132.419 20.0648 132.268 19.3113 132.213 18.5429C128.954 18.7578 126.992 17.2499 126.327 14.0203C125.582 13.4956 124.752 13.194 123.837 13.1157C122.592 13.9628 121.234 14.5662 119.762 14.9248C116.743 14.3219 115.536 12.5129 116.139 9.4976C117.451 7.3923 119.337 6.7139 121.799 7.4624C122.718 8.3199 123.473 9.29996 124.063 10.4021C124.915 10.6703 125.745 10.972 126.553 11.3067C128.546 8.53337 131.187 7.55331 134.477 8.36694C135.881 7.35702 136.182 6.07575 135.383 4.52267C135.782 2.31922 136.99 0.811819 139.005 0ZM139.005 2.7136C140.365 2.63898 141.271 3.24185 141.722 4.52267C140.414 6.87943 139.207 6.87943 138.099 4.52267C138.213 3.81125 138.515 3.20838 139.005 2.7136ZM119.535 9.4976C121.582 10.3736 121.658 11.2782 119.762 12.2112C118.363 11.4405 118.288 10.536 119.535 9.4976ZM130.402 10.8544C133.247 10.456 134.53 11.6622 134.251 14.4725C132.546 16.8677 130.885 16.8677 129.27 14.4725C128.825 12.9914 129.203 11.7856 130.402 10.8544ZM134.477 23.0656C135.914 23.27 136.065 23.7223 134.93 24.4224C134.529 24.0493 134.378 23.597 134.477 23.0656Z" fill="white"/>
<path opacity="0.876" fill-rule="evenodd" clip-rule="evenodd" d="M15.3945 5.42703C17.138 5.18778 18.7227 5.48944 20.1487 6.33156C19.9771 11.2898 19.9017 16.2647 19.9224 21.2564C18.2621 21.2564 16.6019 21.2564 14.9417 21.2564C14.7918 17.4754 14.9427 13.7067 15.3945 9.9497C17.1399 9.26813 16.9889 8.96647 14.9417 9.04516C14.4679 7.81726 14.6188 6.61106 15.3945 5.42703Z" fill="white"/>
<path opacity="0.899" fill-rule="evenodd" clip-rule="evenodd" d="M30.3364 5.42725C31.3929 5.42725 32.4494 5.42725 33.5059 5.42725C33.5059 10.7038 33.5059 15.98 33.5059 21.2566C32.2089 21.4578 31.0769 21.1562 30.11 20.3521C26.9647 22.4072 24.248 21.9549 21.9599 18.9953C20.6803 15.554 21.2086 12.4632 23.5447 9.72378C25.1808 9.30046 26.841 9.07433 28.5253 9.04538C28.5253 7.99024 28.5253 6.93465 28.5253 5.87951C29.2493 6.00072 29.853 5.84966 30.3364 5.42725ZM27.1669 12.6635C27.6197 12.6635 28.0725 12.6635 28.5253 12.6635C28.5253 14.322 28.5253 15.98 28.5253 17.6385C27.9216 17.6385 27.3179 17.6385 26.7142 17.6385C26.5982 15.9339 26.7492 14.2754 27.1669 12.6635Z" fill="white"/>
<path opacity="0.896" fill-rule="evenodd" clip-rule="evenodd" d="M92.3682 5.42725C93.4245 5.42725 94.4813 5.42725 95.5377 5.42725C95.5377 6.63344 95.5377 7.83919 95.5377 9.04538C97.0545 8.97076 98.5636 9.04629 100.066 9.27151C101.37 9.8373 102.2 10.8169 102.556 12.2112C103.058 14.8914 102.757 17.4539 101.65 19.8998C100.129 21.0363 98.3934 21.6397 96.4432 21.7089C94.4754 21.4067 92.5131 21.1051 90.557 20.8043C90.557 15.8294 90.557 10.8544 90.557 5.87951C91.281 6.00072 91.8846 5.84966 92.3682 5.42725ZM95.9905 12.6635C96.4432 12.6635 96.896 12.6635 97.3488 12.6635C97.3488 14.322 97.3488 15.98 97.3488 17.6385C96.7453 17.6385 96.1412 17.6385 95.5377 17.6385C95.4218 15.9339 95.5725 14.2754 95.9905 12.6635Z" fill="white"/>
<path opacity="0.882" fill-rule="evenodd" clip-rule="evenodd" d="M0 6.33191C1.78248 6.1994 3.51814 6.35 5.20703 6.78418C5.63799 9.38924 6.24169 11.9518 7.01817 14.4727C7.69273 11.7822 8.22099 9.06858 8.60292 6.33191C10.4141 6.33191 12.2252 6.33191 14.0363 6.33191C13.049 11.182 11.917 16.0059 10.6405 20.8045C8.19242 21.2445 5.7021 21.3956 3.1695 21.2567C2.04097 16.2958 0.984446 11.3209 0 6.33191Z" fill="white"/>
<path opacity="0.898" fill-rule="evenodd" clip-rule="evenodd" d="M62.0319 6.33154C63.6922 6.33154 65.3521 6.33154 67.0125 6.33154C67.0125 7.99001 67.0125 9.64802 67.0125 11.3065C68.0689 11.3065 69.1257 11.3065 70.182 11.3065C70.182 9.64802 70.182 7.99001 70.182 6.33154C71.8424 6.33154 73.5023 6.33154 75.1626 6.33154C75.1626 11.3065 75.1626 16.2814 75.1626 21.2563C73.5023 21.2563 71.8424 21.2563 70.182 21.2563C70.182 19.5979 70.182 17.9399 70.182 16.2814C69.1257 16.2814 68.0689 16.2814 67.0125 16.2814C67.0125 17.9399 67.0125 19.5979 67.0125 21.2563C65.3521 21.2563 63.6922 21.2563 62.0319 21.2563C62.0319 16.2814 62.0319 11.3065 62.0319 6.33154Z" fill="white"/>
<path opacity="0.88" fill-rule="evenodd" clip-rule="evenodd" d="M38.0341 9.04562C40.6555 8.8629 43.2212 9.08903 45.7314 9.72402C47.3393 11.7208 47.4901 13.8315 46.1842 16.0558C43.2647 16.8391 43.2647 17.2158 46.1842 17.1864C46.1299 18.1968 46.2807 19.1768 46.637 20.1262C43.4254 22.1356 40.1048 22.2107 36.6757 20.3523C34.5742 17.3547 34.3478 14.1888 35.9966 10.8547C36.629 10.1446 37.3082 9.5413 38.0341 9.04562ZM40.7508 12.6638C42.9133 12.7411 43.0641 13.1934 41.2036 14.0206C40.1606 13.8505 40.0097 13.3982 40.7508 12.6638Z" fill="white"/>
<path opacity="0.89" fill-rule="evenodd" clip-rule="evenodd" d="M51.1645 9.04534C59.1516 7.90246 62.0947 11.2194 59.9938 18.9952C57.527 21.5514 54.5839 22.2298 51.1645 21.0304C50.0601 20.6804 49.2297 20.002 48.6742 18.9952C47.1714 14.9981 48.0013 11.6816 51.1645 9.04534ZM53.8812 12.6635C54.334 12.6635 54.7868 12.6635 55.2396 12.6635C55.2396 14.3219 55.2396 15.98 55.2396 17.6384C54.636 17.6384 54.032 17.6384 53.4284 17.6384C53.3125 15.9338 53.4633 14.2754 53.8812 12.6635Z" fill="white"/>
<path opacity="0.88" fill-rule="evenodd" clip-rule="evenodd" d="M76.9733 9.04541C78.6336 9.04541 80.2936 9.04541 81.9539 9.04541C81.9539 11.9096 81.9539 14.7743 81.9539 17.6385C82.5525 17.7154 83.0809 17.5648 83.5387 17.1862C83.7646 14.4767 83.8402 11.7631 83.7651 9.04541C85.4254 9.04541 87.0853 9.04541 88.7457 9.04541C88.7457 13.1158 88.7457 17.1862 88.7457 21.2566C87.1745 21.5393 85.8913 21.087 84.897 19.8998C82.5321 22.0454 80.0418 22.196 77.4261 20.3521C76.9869 16.6082 76.8361 12.8395 76.9733 9.04541Z" fill="white"/>
</svg>
